<svg width="148" height="173" viewBox="0 0 148 173" fill="none" xmlns="http://www.w3.org/2000/svg">
<path d="M0 99.3925L24.0892 75.4701L98.2097 149.078L74.1205 173L0 99.3925Z" fill="#34548E"/>
<path d="M148 99.3925L123.911 75.4701L49.7903 149.078L73.8795 173L148 99.3925Z" fill="#34548E"/>
<path d="M93.0286 50.6342H126.857V156.122H93.0286V50.6342Z" fill="#34548E"/>
<path d="M16.9143 50.6342H50.7429V156.122H16.9143V50.6342Z" fill="#34548E"/>
<path d="M93.0286 0H126.857V29.5366H93.0286V0Z" fill="#34548E"/>
<path d="M16.9143 0H50.7429V29.5366H16.9143V0Z" fill="#34548E"/>
<path d="M148 99.3925L123.911 75.4701L49.7903 149.078L73.8795 173L148 99.3925Z" fill="#34548E"/>
<path d="M93.0286 50.6342H126.857V156.122H93.0286V50.6342Z" fill="#34548E"/>
<path d="M16.9143 50.6342H50.7429V156.122H16.9143V50.6342Z" fill="#34548E"/>
<path d="M93.0286 0H126.857V29.5366H93.0286V0Z" fill="#34548E"/>
<path d="M16.9143 0H50.7429V29.5366H16.9143V0Z" fill="#34548E"/>
</svg>
